<svg version="1.1" xmlns="http://www.w3.org/2000/svg" xmlns:xlink="http://www.w3.org/1999/xlink" width="652.3544921875" height="645"><defs/><g><g transform="translate(-326,-30) scale(1,1)"><rect fill="#C0C0C0" stroke="none" x="343" y="159" width="147.68359375" height="72" opacity="0.2"/></g><g transform="translate(-326,-30) scale(1,1)"><rect fill="#ffffff" stroke="none" x="336" y="152" width="147.68359375" height="72"/></g><g transform="translate(-326,-30) scale(1,1)"><path fill="none" stroke="#000000" d="M 336 152 L 483.68359375 152 L 483.68359375 224 L 336 224 L 336 152 Z Z" stroke-miterlimit="10"/></g><g transform="translate(-326,-30) scale(1,1)"><path fill="none" stroke="#000000" d="M 336 177 L 483.68359375 177" stroke-miterlimit="10"/></g><g transform="translate(-326,-30) scale(1,1)"><path fill="none" stroke="#000000" d="M 336 202 L 483.68359375 202" stroke-miterlimit="10"/></g><g transform="translate(-326,-30) scale(1,1)"><g><path fill="none" stroke="none"/><text fill="#000000" stroke="none" font-family="Arial" font-size="13px" font-style="normal" font-weight="bold" text-decoration="none" x="340.5" y="170">SubscriptionPublisher</text></g></g><g transform="translate(-326,-30) scale(1,1)"><g><path fill="none" stroke="none"/><text fill="#000000" stroke="none" font-family="Arial" font-size="13px" font-style="normal" font-weight="normal" text-decoration="none" x="341" y="195">#logger</text></g></g><g transform="translate(-326,-30) scale(1,1)"><rect fill="#C0C0C0" stroke="none" x="599" y="135" width="189.26708984375" height="115" opacity="0.2"/></g><g transform="translate(-326,-30) scale(1,1)"><rect fill="#ffffff" stroke="none" x="592" y="128" width="189.26708984375" height="115"/></g><g transform="translate(-326,-30) scale(1,1)"><path fill="none" stroke="#000000" d="M 592 128 L 781.26708984375 128 L 781.26708984375 243 L 592 243 L 592 128 Z Z" stroke-miterlimit="10"/></g><g transform="translate(-326,-30) scale(1,1)"><path fill="none" stroke="#000000" d="M 592 153 L 781.26708984375 153" stroke-miterlimit="10"/></g><g transform="translate(-326,-30) scale(1,1)"><path fill="none" stroke="#000000" d="M 592 176 L 781.26708984375 176" stroke-miterlimit="10"/></g><g transform="translate(-326,-30) scale(1,1)"><g><path fill="none" stroke="none"/><text fill="#000000" stroke="none" font-family="Arial" font-size="13px" font-style="italic" font-weight="bold" text-decoration="none" x="660.6240234375" y="145.5">Registry</text></g></g><g transform="translate(-326,-30) scale(1,1)"><g><path fill="none" stroke="none"/><text fill="#000000" stroke="none" font-family="Arial" font-size="13px" font-style="normal" font-weight="normal" text-decoration="none" x="597" y="169">+subjects: list {readOnly}</text></g></g><g transform="translate(-326,-30) scale(1,1)"><g><path fill="none" stroke="none"/><text fill="#000000" stroke="none" font-family="Arial" font-size="13px" font-style="normal" font-weight="normal" text-decoration="none" x="597" y="192">+get_subjects(): list</text></g></g><g transform="translate(-326,-30) scale(1,1)"><g><path fill="none" stroke="none"/><text fill="#000000" stroke="none" font-family="Arial" font-size="13px" font-style="normal" font-weight="normal" text-decoration="none" x="597" y="207">+subscribe(subject, subscriber)</text></g></g><g transform="translate(-326,-30) scale(1,1)"><g><path fill="none" stroke="none"/><text fill="#000000" stroke="none" font-family="Arial" font-size="13px" font-style="normal" font-weight="normal" text-decoration="none" x="597" y="222">+subscribers_of(subject): list</text></g></g><g transform="translate(-326,-30) scale(1,1)"><path fill="none" stroke="#000000" d="M 485 187 L 591 186" stroke-miterlimit="10"/></g><g transform="translate(-326,-30) scale(1,1)"><g><path fill="none" stroke="none"/><text fill="#000000" stroke="none" font-family="Arial" font-size="13px" font-style="normal" font-weight="normal" text-decoration="none" x="502.5" y="172">+subscriptions</text></g></g><g transform="translate(-326,-30) scale(1,1)"><rect fill="#C0C0C0" stroke="none" x="615" y="295" width="162.89892578125" height="64" opacity="0.2"/></g><g transform="translate(-326,-30) scale(1,1)"><rect fill="#ffffff" stroke="none" x="608" y="288" width="162.89892578125" height="64"/></g><g transform="translate(-326,-30) scale(1,1)"><path fill="none" stroke="#000000" d="M 608 288 L 770.89892578125 288 L 770.89892578125 352 L 608 352 L 608 288 Z Z" stroke-miterlimit="10"/></g><g transform="translate(-326,-30) scale(1,1)"><path fill="none" stroke="#000000" d="M 608 313 L 770.89892578125 313" stroke-miterlimit="10"/></g><g transform="translate(-326,-30) scale(1,1)"><path fill="none" stroke="#000000" d="M 608 336 L 770.89892578125 336" stroke-miterlimit="10"/></g><g transform="translate(-326,-30) scale(1,1)"><g><path fill="none" stroke="none"/><text fill="#000000" stroke="none" font-family="Arial" font-size="13px" font-style="normal" font-weight="bold" text-decoration="none" x="642.127685546875" y="306">SimpleRegistry</text></g></g><g transform="translate(-326,-30) scale(1,1)"><g><path fill="none" stroke="none"/><text fill="#000000" stroke="none" font-family="Arial" font-size="13px" font-style="normal" font-weight="normal" text-decoration="none" x="613" y="329">#subscriptions: DefaultDict</text></g></g><g transform="translate(-326,-30) scale(1,1)"><path fill="none" stroke="#000000" d="M 688 287 L 687 244" stroke-miterlimit="10"/></g><g transform="translate(-326,-30) scale(1,1)"><path fill="#FFFFFF" stroke="none" d="M 695.8893145716651 264.124117035189 L 687 244 L 679.055794992751 264.5155942346986"/></g><g transform="translate(-326,-30) scale(1,1)"><path fill="none" stroke="#000000" d="M 695.8893145716651 264.124117035189 L 687 244 L 679.055794992751 264.5155942346986 L 695.8893145716651 264.124117035189" stroke-miterlimit="10"/></g><g transform="translate(-326,-30) scale(1,1)"><rect fill="#C0C0C0" stroke="none" x="567" y="407" width="262.73486328125" height="57" opacity="0.2"/></g><g transform="translate(-326,-30) scale(1,1)"><rect fill="#ffffff" stroke="none" x="560" y="400" width="262.73486328125" height="57"/></g><g transform="translate(-326,-30) scale(1,1)"><path fill="none" stroke="#000000" d="M 560 400 L 822.73486328125 400 L 822.73486328125 457 L 560 457 L 560 400 Z Z" stroke-miterlimit="10"/></g><g transform="translate(-326,-30) scale(1,1)"><path fill="none" stroke="#000000" d="M 560 425 L 822.73486328125 425" stroke-miterlimit="10"/></g><g transform="translate(-326,-30) scale(1,1)"><path fill="none" stroke="#000000" d="M 560 435 L 822.73486328125 435" stroke-miterlimit="10"/></g><g transform="translate(-326,-30) scale(1,1)"><g><path fill="none" stroke="none"/><text fill="#000000" stroke="none" font-family="Arial" font-size="13px" font-style="normal" font-weight="bold" text-decoration="none" x="663.913818359375" y="418">Validator</text></g></g><g transform="translate(-326,-30) scale(1,1)"><g><path fill="none" stroke="none"/><text fill="#000000" stroke="none" font-family="Arial" font-size="13px" font-style="normal" font-weight="normal" text-decoration="none" x="565" y="451">+__call__(registry, subject, subscriber): bool</text></g></g><g transform="translate(-326,-30) scale(1,1)"><path fill="none" stroke="#000000" d="M 690 353 L 690 399" stroke-miterlimit="10"/></g><g transform="translate(-326,-30) scale(1,1)"><g><path fill="none" stroke="none"/><text fill="#000000" stroke="none" font-family="Arial" font-size="13px" font-style="normal" font-weight="normal" text-decoration="none" x="677.2958984375" y="378">#validator</text></g></g><g transform="translate(-326,-30) scale(1,1)"><rect fill="#C0C0C0" stroke="none" x="527" y="559" width="127.45361328125" height="44" opacity="0.2"/></g><g transform="translate(-326,-30) scale(1,1)"><rect fill="#ffffff" stroke="none" x="520" y="552" width="127.45361328125" height="44"/></g><g transform="translate(-326,-30) scale(1,1)"><path fill="none" stroke="#000000" d="M 520 552 L 647.45361328125 552 L 647.45361328125 596 L 520 596 L 520 552 Z Z" stroke-miterlimit="10"/></g><g transform="translate(-326,-30) scale(1,1)"><path fill="none" stroke="#000000" d="M 520 577 L 647.45361328125 577" stroke-miterlimit="10"/></g><g transform="translate(-326,-30) scale(1,1)"><path fill="none" stroke="#000000" d="M 520 587 L 647.45361328125 587" stroke-miterlimit="10"/></g><g transform="translate(-326,-30) scale(1,1)"><g><path fill="none" stroke="none"/><text fill="#000000" stroke="none" font-family="Arial" font-size="13px" font-style="normal" font-weight="bold" text-decoration="none" x="546.15185546875" y="570">AlwaysValid</text></g></g><g transform="translate(-326,-30) scale(1,1)"><rect fill="#C0C0C0" stroke="none" x="351" y="47" width="119.1953125" height="57" opacity="0.2"/></g><g transform="translate(-326,-30) scale(1,1)"><rect fill="#ffffff" stroke="none" x="344" y="40" width="119.1953125" height="57"/></g><g transform="translate(-326,-30) scale(1,1)"><path fill="none" stroke="#000000" d="M 344 40 L 463.1953125 40 L 463.1953125 97 L 344 97 L 344 40 Z Z" stroke-miterlimit="10"/></g><g transform="translate(-326,-30) scale(1,1)"><path fill="none" stroke="#000000" d="M 344 65 L 463.1953125 65" stroke-miterlimit="10"/></g><g transform="translate(-326,-30) scale(1,1)"><path fill="none" stroke="#000000" d="M 344 75 L 463.1953125 75" stroke-miterlimit="10"/></g><g transform="translate(-326,-30) scale(1,1)"><g><path fill="none" stroke="none"/><text fill="#000000" stroke="none" font-family="Arial" font-size="13px" font-style="italic" font-weight="bold" text-decoration="none" x="373.9794921875" y="57.5">Publisher</text></g></g><g transform="translate(-326,-30) scale(1,1)"><g><path fill="none" stroke="none"/><text fill="#000000" stroke="none" font-family="Arial" font-size="13px" font-style="normal" font-weight="normal" text-decoration="none" x="349" y="91">+publish(message)</text></g></g><g transform="translate(-326,-30) scale(1,1)"><path fill="none" stroke="#000000" d="M 407 151 L 405 98" stroke-miterlimit="10"/></g><g transform="translate(-326,-30) scale(1,1)"><path fill="#FFFFFF" stroke="none" d="M 414.1794963906937 117.99342006794336 L 405 98 L 397.353401236583 118.62836705489094"/></g><g transform="translate(-326,-30) scale(1,1)"><path fill="none" stroke="#000000" d="M 414.1794963906937 117.99342006794336 L 405 98 L 397.353401236583 118.62836705489094 L 414.1794963906937 117.99342006794336" stroke-miterlimit="10"/></g><g transform="translate(-326,-30) scale(1,1)"><rect fill="#C0C0C0" stroke="none" x="343" y="319" width="128.22802734375" height="24" opacity="0.2"/></g><g transform="translate(-326,-30) scale(1,1)"><rect fill="#ffffff" stroke="none" x="336" y="312" width="128.22802734375" height="24"/></g><g transform="translate(-326,-30) scale(1,1)"><path fill="none" stroke="#000000" d="M 336 312 L 464.22802734375 312 L 464.22802734375 336 L 336 336 L 336 312 Z Z" stroke-miterlimit="10"/></g><g transform="translate(-326,-30) scale(1,1)"><rect fill="#ffffff" stroke="none" x="336" y="312" width="128.22802734375" height="24"/></g><g transform="translate(-326,-30) scale(1,1)"><path fill="none" stroke="#000000" d="M 336 312 L 464.22802734375 312 L 464.22802734375 336 L 336 336 L 336 312 Z Z" stroke-miterlimit="10"/></g><g transform="translate(-326,-30) scale(1,1)"><g><path fill="none" stroke="none"/><text fill="#000000" stroke="none" font-family="Arial" font-size="13px" font-style="normal" font-weight="bold" text-decoration="none" x="343.048583984375" y="330">handler: Publisher</text><path fill="none" stroke="#000000" d="M 457.179443359375 331.5 L 343.048583984375 331.5" stroke-miterlimit="10"/></g></g><g transform="translate(-326,-30) scale(1,1)"><rect fill="#C0C0C0" stroke="none" x="343" y="399" width="120.22998046875" height="24" opacity="0.2"/></g><g transform="translate(-326,-30) scale(1,1)"><rect fill="#ffffff" stroke="none" x="336" y="392" width="120.22998046875" height="24"/></g><g transform="translate(-326,-30) scale(1,1)"><path fill="none" stroke="#000000" d="M 336 392 L 456.22998046875 392 L 456.22998046875 416 L 336 416 L 336 392 Z Z" stroke-miterlimit="10"/></g><g transform="translate(-326,-30) scale(1,1)"><rect fill="#ffffff" stroke="none" x="336" y="392" width="120.22998046875" height="24"/></g><g transform="translate(-326,-30) scale(1,1)"><path fill="none" stroke="#000000" d="M 336 392 L 456.22998046875 392 L 456.22998046875 416 L 336 416 L 336 392 Z Z" stroke-miterlimit="10"/></g><g transform="translate(-326,-30) scale(1,1)"><g><path fill="none" stroke="none"/><text fill="#000000" stroke="none" font-family="Arial" font-size="13px" font-style="normal" font-weight="bold" text-decoration="none" x="350.970458984375" y="410">bus: Publisher</text><path fill="none" stroke="#000000" d="M 441.259521484375 411.5 L 350.970458984375 411.5" stroke-miterlimit="10"/></g></g><g transform="translate(-326,-30) scale(1,1)"><rect fill="#C0C0C0" stroke="none" x="735" y="551" width="165.20947265625" height="57" opacity="0.2"/></g><g transform="translate(-326,-30) scale(1,1)"><rect fill="#ffffff" stroke="none" x="728" y="544" width="165.20947265625" height="57"/></g><g transform="translate(-326,-30) scale(1,1)"><path fill="none" stroke="#000000" d="M 728 544 L 893.20947265625 544 L 893.20947265625 601 L 728 601 L 728 544 Z Z" stroke-miterlimit="10"/></g><g transform="translate(-326,-30) scale(1,1)"><path fill="none" stroke="#000000" d="M 728 569 L 893.20947265625 569" stroke-miterlimit="10"/></g><g transform="translate(-326,-30) scale(1,1)"><path fill="none" stroke="#000000" d="M 728 592 L 893.20947265625 592" stroke-miterlimit="10"/></g><g transform="translate(-326,-30) scale(1,1)"><g><path fill="none" stroke="none"/><text fill="#000000" stroke="none" font-family="Arial" font-size="13px" font-style="normal" font-weight="bold" text-decoration="none" x="787.124755859375" y="562">AllValid</text></g></g><g transform="translate(-326,-30) scale(1,1)"><g><path fill="none" stroke="none"/><text fill="#000000" stroke="none" font-family="Arial" font-size="13px" font-style="normal" font-weight="normal" text-decoration="none" x="733" y="585">#validators: List&lt;Validator&gt;</text></g></g><g transform="translate(-326,-30) scale(1,1)"><rect fill="#C0C0C0" stroke="none" x="615" y="615" width="165.20947265625" height="57" opacity="0.2"/></g><g transform="translate(-326,-30) scale(1,1)"><rect fill="#ffffff" stroke="none" x="608" y="608" width="165.20947265625" height="57"/></g><g transform="translate(-326,-30) scale(1,1)"><path fill="none" stroke="#000000" d="M 608 608 L 773.20947265625 608 L 773.20947265625 665 L 608 665 L 608 608 Z Z" stroke-miterlimit="10"/></g><g transform="translate(-326,-30) scale(1,1)"><path fill="none" stroke="#000000" d="M 608 633 L 773.20947265625 633" stroke-miterlimit="10"/></g><g transform="translate(-326,-30) scale(1,1)"><path fill="none" stroke="#000000" d="M 608 656 L 773.20947265625 656" stroke-miterlimit="10"/></g><g transform="translate(-326,-30) scale(1,1)"><g><path fill="none" stroke="none"/><text fill="#000000" stroke="none" font-family="Arial" font-size="13px" font-style="normal" font-weight="bold" text-decoration="none" x="663.151123046875" y="626">AnyValid</text></g></g><g transform="translate(-326,-30) scale(1,1)"><g><path fill="none" stroke="none"/><text fill="#000000" stroke="none" font-family="Arial" font-size="13px" font-style="normal" font-weight="normal" text-decoration="none" x="613" y="649">#validators: List&lt;Validator&gt;</text></g></g><g transform="translate(-326,-30) scale(1,1)"><path fill="none" stroke="#000000" d="M 690 607 L 691 458" stroke-miterlimit="10"/></g><g transform="translate(-326,-30) scale(1,1)"><path fill="#FFFFFF" stroke="none" d="M 699.2824372381002 478.3813942947221 L 691 458 L 682.4447454199778 478.26838965164745"/></g><g transform="translate(-326,-30) scale(1,1)"><path fill="none" stroke="#000000" d="M 699.2824372381002 478.3813942947221 L 691 458 L 682.4447454199778 478.26838965164745 L 699.2824372381002 478.3813942947221" stroke-miterlimit="10"/></g><g transform="translate(-326,-30) scale(1,1)"><path fill="none" stroke="#000000" d="M 600 551 L 669 458" stroke-miterlimit="10"/></g><g transform="translate(-326,-30) scale(1,1)"><path fill="#FFFFFF" stroke="none" d="M 663.6505137087626 479.3397046938298 L 669 458 L 650.1278920700761 469.30679186512697"/></g><g transform="translate(-326,-30) scale(1,1)"><path fill="none" stroke="#000000" d="M 663.6505137087626 479.3397046938298 L 669 458 L 650.1278920700761 469.30679186512697 L 663.6505137087626 479.3397046938298" stroke-miterlimit="10"/></g><g transform="translate(-326,-30) scale(1,1)"><path fill="none" stroke="#000000" d="M 786 543 L 716 458" stroke-miterlimit="10"/></g><g transform="translate(-326,-30) scale(1,1)"><path fill="#FFFFFF" stroke="none" d="M 735.4198802973928 468.33771005759667 L 716 458 L 722.4220641644505 479.04179393178447"/></g><g transform="translate(-326,-30) scale(1,1)"><path fill="none" stroke="#000000" d="M 735.4198802973928 468.33771005759667 L 716 458 L 722.4220641644505 479.04179393178447 L 735.4198802973928 468.33771005759667" stroke-miterlimit="10"/></g><g transform="translate(-326,-30) scale(1,1)"><rect fill="#C0C0C0" stroke="none" x="343" y="359" width="123.1435546875" height="24" opacity="0.2"/></g><g transform="translate(-326,-30) scale(1,1)"><rect fill="#ffffff" stroke="none" x="336" y="352" width="123.1435546875" height="24"/></g><g transform="translate(-326,-30) scale(1,1)"><path fill="none" stroke="#000000" d="M 336 352 L 459.1435546875 352 L 459.1435546875 376 L 336 376 L 336 352 Z Z" stroke-miterlimit="10"/></g><g transform="translate(-326,-30) scale(1,1)"><rect fill="#ffffff" stroke="none" x="336" y="352" width="123.1435546875" height="24"/></g><g transform="translate(-326,-30) scale(1,1)"><path fill="none" stroke="#000000" d="M 336 352 L 459.1435546875 352 L 459.1435546875 376 L 336 376 L 336 352 Z Z" stroke-miterlimit="10"/></g><g transform="translate(-326,-30) scale(1,1)"><g><path fill="none" stroke="none"/><text fill="#000000" stroke="none" font-family="Arial" font-size="13px" font-style="normal" font-weight="bold" text-decoration="none" x="340.5" y="370">handlers: Registry</text><path fill="none" stroke="#000000" d="M 454.6435546875 371.5 L 340.5 371.5" stroke-miterlimit="10"/></g></g><g transform="translate(-326,-30) scale(1,1)"><rect fill="#C0C0C0" stroke="none" x="871" y="135" width="104.3544921875" height="44" opacity="0.2"/></g><g transform="translate(-326,-30) scale(1,1)"><rect fill="#ffffff" stroke="none" x="864" y="128" width="104.3544921875" height="44"/></g><g transform="translate(-326,-30) scale(1,1)"><path fill="none" stroke="#000000" d="M 864 128 L 968.3544921875 128 L 968.3544921875 172 L 864 172 L 864 128 Z Z" stroke-miterlimit="10"/></g><g transform="translate(-326,-30) scale(1,1)"><path fill="none" stroke="#000000" d="M 864 153 L 968.3544921875 153" stroke-miterlimit="10"/></g><g transform="translate(-326,-30) scale(1,1)"><path fill="none" stroke="#000000" d="M 864 163 L 968.3544921875 163" stroke-miterlimit="10"/></g><g transform="translate(-326,-30) scale(1,1)"><g><path fill="none" stroke="none"/><text fill="#000000" stroke="none" font-family="Arial" font-size="13px" font-style="normal" font-weight="bold" text-decoration="none" x="868.5" y="146">ANY_SUBJECT</text></g></g></g></svg>